#!OML:ASF H:\Male1\Project 1\Capture day 1\Session 1\Male1.ASF
:FULLY-SPECIFIED
:DEGREES
554
root 20.0843 15.2578 -3.16858 296.842 88.2233 -60.8547
lowerback 3.67149 1.83444 -0.890824
upperback 2.71406 2.46852 -0.541757
thorax 0.713672 1.24725 -0.129565
lowerneck -5.31206 4.76852 10.1415
upperneck 1.22242 5.91716 -7.17539
head 1.93888 2.88989 -3.99105
rclavicle 9.0447e-015 7.95139e-016
rhumerus -36.789 3.06123 -91.9602
rradius 32.0566
rwrist -17.129
rhand -16.3147 1.56446
rfingers 7.12502
rthumb 9.89655 -28.1829
lclavicle 9.0447e-015 7.95139e-016
lhumerus -29.808 12.563 79.6705
lradius 25.4078
lwrist -7.74635
lhand -19.4302 11.9102
lfingers 7.12502
lthumb 6.88993 41.7781
rfemur -8.39537 18.6038 26.2052
rtibia 30.1625
rfoot -25.3687 -25.9338
rtoes -32.3135
lfemur -7.73707 -19.7552 -23.7662
ltibia 32.2533
lfoot -27.1486 25.4576
ltoes -2.33257
555
root 20.0915 15.2587 -3.16938 298.148 88.1494 -59.5691
lowerback 3.61929 1.8453 -0.876162
upperback 2.71896 2.48394 -0.534168
thorax 0.748031 1.25488 -0.128439
lowerneck -5.38 4.80476 10.1117
upperneck 1.43942 5.97495 -7.51981
head 1.82945 2.89994 -3.67968
rclavicle -1.29707e-014 1.98785e-015
rhumerus -36.7459 3.19874 -91.926
rradius 32.0342
rwrist -17.0713
rhand -16.3294 1.63981
rfingers 7.12502
rthumb 9.88233 -28.1083
lclavicle -1.29707e-014 1.98785e-015
lhumerus -29.6508 11.7415 80.2605
lradius 25.7651
lwrist -7.30644
lhand -19.3806 11.8844
lfingers 7.12502
lthumb 6.9378 41.7507
rfemur -8.39601 18.724 26.2725
rtibia 30.1492
rfoot -25.1425 -26.026
rtoes -31.9866
lfemur -7.70313 -19.7483 -23.7318
ltibia 32.2352
lfoot -27.2381 25.4879
ltoes -1.97145
556
root 20.0987 15.2595 -3.17001 298.799 88.0714 -58.936
lowerback 3.58527 1.84417 -0.854685
upperback 2.71735 2.483 -0.514034
thorax 0.765352 1.25432 -0.118599
lowerneck -5.3649 4.84503 10.1068
upperneck 1.46162 6.0325 -7.54874
head 1.8395 2.92838 -3.685
rclavicle 1.15792e-014 1.98785e-015
rhumerus -36.7041 3.38677 -91.8928
rradius 31.9978
rwrist -17.0599
rhand -16.3593 1.72708
rfingers 7.12502
rthumb 9.8535 -28.0224
lclavicle 1.15792e-014 1.98785e-015
lhumerus -29.5301 10.932 80.8421
lradius 26.1565
lwrist -6.85488
lhand -19.2944 11.9702
lfingers 7.12502
lthumb 7.02095 41.8338
rfemur -8.37738 18.8536 26.3575
rtibia 30.1193
rfoot -24.9494 -26.12
rtoes -31.6232
lfemur -7.6749 -19.7448 -23.6843
ltibia 32.2314
lfoot -27.3193 25.5177
ltoes -1.68931
557
root 20.1061 15.2601 -3.17074 299.124 88.0137 -58.6229
lowerback 3.55933 1.8287 -0.849909
upperback 2.71604 2.46243 -0.490299
thorax 0.777693 1.24371 -0.0954853
lowerneck -5.30138 4.89248 10.1028
upperneck 1.43186 6.10198 -7.56718
head 1.82703 2.96363 -3.68839
rclavicle -3.22528e-014 1.23246e-014
rhumerus -36.661 3.6372 -91.8746
rradius 31.9493
rwrist -17.1172
rhand -16.4177 1.83377
rfingers 7.12502
rthumb 9.79715 -27.9183
lclavicle -3.22528e-014 1.23246e-014
lhumerus -29.4315 10.166 81.3978
lradius 26.5569
lwrist -6.43233
lhand -19.1664 12.1333
lfingers 7.12502
lthumb 7.14449 41.9927
rfemur -8.33844 18.9735 26.4293
rtibia 30.0844
rfoot -24.8229 -26.1866
rtoes -31.2245
lfemur -7.64379 -19.7462 -23.6543
ltibia 32.2337
lfoot -27.3821 25.5541
ltoes -1.53726
558
root 20.1135 15.2608 -3.17155 299.091 87.9623 -58.6593
lowerback 3.54062 1.80297 -0.843372
upperback 2.71608 2.42822 -0.466106
thorax 0.787515 1.22633 -0.0727416
lowerneck -5.2025 4.94782 10.1247
upperneck 1.3722 6.18285 -7.59424
head 1.80204 3.00509 -3.69917
rclavicle -2.40529e-014 7.15625e-015
rhumerus -36.6229 3.91379 -91.8745
rradius 31.8996
rwrist -17.2266
rhand -16.5019 1.95535
rfingers 7.12502
rthumb 9.71593 -27.8005
lclavicle -2.40529e-014 7.15625e-015
lhumerus -29.3473 9.4338 81.9169
lradius 26.9432
lwrist -6.04191
lhand -19.0338 12.3137
lfingers 7.12502
lthumb 7.27255 42.1688
rfemur -8.28484 19.0774 26.5016
rtibia 30.0581
rfoot -24.7733 -26.2163
rtoes -30.8247
lfemur -7.60213 -19.7515 -23.6274
ltibia 32.2312
lfoot -27.4219 25.6
ltoes -1.5269
